<?xml version="1.0" encoding="utf-8"?>
<!-- Generator: Adobe Illustrator 27.5.0, SVG Export Plug-In . SVG Version: 6.00 Build 0)  -->
<svg version="1.1" id="Capa_1" xmlns="http://www.w3.org/2000/svg" xmlns:xlink="http://www.w3.org/1999/xlink" x="0px" y="0px"
	 viewBox="0 0 2122 2122" style="enable-background:new 0 0 2122 2122;" xml:space="preserve">
<g>
	<path style="fill:#B9CA45;" d="M1532.525,437.27c-8.08,11.346-15.785,23.004-23.15,34.727c-4.491,7.503-8.758,15.153-12.793,22.948
		c10.653,26.228,24.431,51.217,40.97,74.182c6.788,9.421,15.032,18.032,23.672,26.388c11.458-59.285,24.705-119.423,55.719-170.417
		c2.331-3.83,7.245-2.38,8.691,0.705c8.101-10.69,17.592-20.145,29.039-27.648c7.922-5.194,16.658-9.383,23.157-16.273
		c6.495-6.884,10.232-17.603,5.715-25.915c-2.143-3.966-5.846-6.889-9.807-9.062c-18.806-10.3-43.035-5.33-60.804,6.723
		c-1.248,0.849-2.462,1.775-3.695,2.653c-0.191,0.825-0.579,1.639-1.459,2.355C1579.279,381.797,1554.067,408.169,1532.525,437.27z"
		/>
	<path style="fill:#B2BC34;" d="M1487.099,628.23c1.233,1.048,2.439,2.127,3.682,3.162c20.272,16.853,41.936,31.972,63.789,46.826
		c-0.008-4.598-0.116-9.247-0.194-13.861c-2.95,0.179-6.292-2.267-5.481-6.08c4.363-20.506,8.235-41.581,12.329-62.762
		c-8.639-8.355-16.883-16.966-23.672-26.388c-16.539-22.965-30.318-47.955-40.97-74.182c-5.483,10.591-10.581,21.422-15.2,32.526
		c-1.201,2.887-4.195,3.661-6.558,2.985c-1.336,2.35-2.738,4.787-4.049,7.1c-8.149,14.32-16.586,31.034-23.406,48.74
		c12.727,12.3,26.977,23.44,43.24,33.033C1495.535,622.237,1491.881,629.387,1487.099,628.23z"/>
	<path style="fill:#657E34;" d="M982.216,2005.388c18.47-7.381,38.178-15.493,52.833-29.452
		c19.547-18.626,21.778-42.031,21.807-67.381c0.026-21.519,1.314-42.114,4.542-62.436c-1.178-0.042-2.378-0.038-3.534-0.102
		c-29.978-1.457-60.122-6.913-87.142-19.907c-8.531-4.128-17.127-9.134-25.358-14.886c6.393,50.358,37.609,99.13,24.403,151.797
		c-1.174,4.69-6.973,4.199-8.899,0.959c-6.948,9.177-17.403,17.318-16.879,28.716c0.458,9.842,9.842,17.442,19.522,19.128
		c5.189,0.922,10.424,0.532,15.607-0.477C978.699,2009.085,979.527,2006.461,982.216,2005.388z"/>
	<path style="fill:#5A6E29;" d="M943.708,1755.379c3.249-0.64,7.08,1.758,5.749,5.785c-5.631,16.984-6.18,33.605-4.091,50.059
		c8.231,5.752,16.827,10.758,25.358,14.886c27.021,12.994,57.164,18.45,87.142,19.907c1.156,0.064,2.356,0.06,3.534,0.102
		c2.935-18.489,7.468-36.754,14.289-55.259c1.056-2.866,3.856-3.695,6.182-3.121c3.73-10.788,7.906-22.057,10.67-33.323
		c-48.838-1.845-97.546-8.324-145.58-19.358C945.556,1741.73,944.48,1748.517,943.708,1755.379z"/>
	<path style="fill:#657E34;" d="M1513.612,1726.172c-12.586,9.499-26.028,17.689-39.981,24.949
		c36.534,28.662,69.66,60.889,99.138,96.903c1.905,2.326,1.263,5.124-0.331,6.871c10.879,11.881,22.971,22.029,37.995,26.759
		c0.759-0.624,1.753-1.015,3.096-0.855c15.342,1.827,30.494,1.759,45.568-2.441c6.777-1.89,15.002-4.126,20.853-7.98
		c12.892-8.497,24-34.124,6.719-42.368c-15.327-7.318-27.045-3.537-38.616-18.723c-13.608-17.851-21.121-41.593-30.524-61.808
		c-11.196-24.067-22.387-48.133-33.583-72.196c-3.612-5.096-7.334-10.118-11.284-14.946
		C1557.948,1685.992,1537.29,1708.272,1513.612,1726.172z"/>
	<path style="fill:#5A6E29;" d="M1456.429,1746.626c0.475-3.225,3.652-5.945,6.908-3.494c3.476,2.617,6.879,5.309,10.294,7.989
		c13.953-7.26,27.395-15.45,39.981-24.949c23.678-17.9,44.336-40.18,59.05-65.837c-5.946-7.269-12.309-14.14-18.989-20.583
		c-41.937,27.429-87.978,49.414-137.318,64.722C1422.956,1722.547,1439.443,1735.274,1456.429,1746.626z"/>
	<path style="fill:#B9CA45;" d="M944.691,121.034c-38.387,11.09-73.71,28.432-105.321,51.599
		c-27.013,54.135-41.084,114.692-38.401,174.903c1.837,0.036,3.513,1.069,3.893,3.49c14.918,94.67,63.352,181.091,68.848,277.632
		c5.754,101.033-26.748,199.366-58.265,293.904c-0.585,1.754-1.838,2.69-3.235,3.09c-7.57,21.482-15.338,42.813-22.948,63.95
		c-19.503,54.211-38.068,110.95-49.749,168.058c2.628,0.384,5.079,2.6,4.248,5.934c-40.755,163.878,31.162,334.46,176.974,419.347
		c2.374,1.38,2.697,3.745,1.933,5.73c46.227,25.893,97.275,45.132,149.241,58.028c0.785-2.153,2.826-3.889,5.688-3.231
		c89.618,20.624,181.14,26.236,272.604,16.921c2.293-0.234,3.719,0.945,4.319,2.548c55.961-6.946,111.014-20.232,163.642-40.604
		c40.033-15.511,78.542-35.297,114.546-58.85c99.275-98.08,160-233.334,161.591-379.494c0.048-4.443,4.907-5.672,7.739-3.824
		c2.551-42.264,0.967-84.787-4.733-126.723c-2.664,0.472-5.962-0.99-6.358-4.493c-15.238-135.248-86.341-260.027-194.641-342.235
		c-13.79-9.635-27.794-19.021-41.736-28.497c-21.853-14.854-43.517-29.973-63.789-46.826c-1.243-1.035-2.449-2.114-3.682-3.162
		c-0.465-0.112-0.929-0.204-1.409-0.487c-101.997-60.166-130.246-180.906-170.148-283.663
		c-24.282-62.524-56.911-120.541-110.187-162.835c-51.82-41.135-115.595-64.507-181.568-67.406c-1.621-0.07-2.804-0.789-3.586-1.794
		c-24.27-0.84-48.616,1.203-72.482,6.368C947.229,119.586,946.27,120.579,944.691,121.034z"/>
	<path style="fill:#657E34;" d="M1393.992,1700.857c92.314-24.886,173.75-73.188,238.716-137.373
		c-36.004,23.553-74.513,43.338-114.546,58.85c-52.628,20.373-107.681,33.658-163.642,40.604c1.033,2.76-0.412,6.798-4.319,7.196
		c-92.322,9.403-184.774,3.537-275.195-17.266c-3.247-0.748-3.986-3.728-3.097-6.167c-51.966-12.896-103.014-32.135-149.241-58.028
		c-0.98,2.549-3.799,4.457-6.853,2.68c-48.578-28.28-89.087-65.901-120.295-109.514c-18.059-23.486-33.101-49.32-44.323-77.604
		c-5.32-13.408-9.616-26.999-13.076-40.723c-18.627-64.402-20.776-134.053-3.753-202.507c0.685-2.753,2.974-3.66,5.145-3.343
		c11.681-57.109,30.246-113.847,49.749-168.058c7.609-21.137,15.378-42.468,22.948-63.95c-3.329,0.953-7.562-1.481-6.163-5.677
		c31.254-93.739,63.625-191.128,57.924-291.318c-5.447-95.6-53.724-181.267-68.501-275.04c-0.59-3.739,2.65-6.138,5.5-6.082
		c-2.683-60.211,11.388-120.768,38.401-174.903c-14.634,10.726-28.478,22.694-41.455,35.88c-2.419,2.457-5.525,1.449-7.162-0.662
		c-7.262,7.527-14.152,15.413-20.681,23.587c4.033-0.57,7.964,4.578,4.257,8.13c-84.185,80.638-72.692,203.819-58.885,309.154
		c7.377,56.253,15.25,113.145,9.408,169.934c-5.286,51.386-22.572,100.185-41.954,147.737c-0.783,1.922-2.37,2.849-4.033,3.105
		c-4.028,12.056-8.064,24.092-11.987,36.115c-3.551,10.885-6.984,21.824-10.35,32.789c14.566-19.321,31.122-40.946,47.733-46.007
		c13.374-4.093,23.223-0.843,30.102,6.229c2.266-2.142,6.975-2.069,8.451,1.854c9.559,25.367,6.37,49.943-3.155,72.843
		c-16.251,43.579-49.04,80.399-87.271,107.419c-2.449,1.735-4.972,3.346-7.463,5.01c-9.347,7.12-19.011,13.823-29.008,20.054
		c-1.831,10.969-3.426,21.966-4.873,32.979c3.064-2.473,9.01,0.083,7.824,5.041c-11.391,47.578-15.839,95.728-13.781,143.165
		c2.234,35.901,7.488,71.771,15.932,106.772c24.448,94.869,75.686,182.39,149.89,251.028
		c46.061,36.454,101.526,62.666,162.243,79.707c1.06-1.248,2.663-2.027,4.712-1.521c119.498,29.369,243.449,29.798,363.142,1.233
		c3.717-0.887,6.094,2.251,6.035,5.168c28.547-6.11,56.603-13.561,83.835-22.307
		C1390.066,1704.659,1390.834,1701.707,1393.992,1700.857z"/>
	<path style="fill:#9F5230;" d="M1158.552,887.942c-11.922,71.099-8.477,144.925,11.562,214.265
		c7.893,27.352,18.285,54.115,32.965,78.475c45.895,76.161,135.536,123.713,224.336,119.001
		c54.581-2.89,107.369-25.485,148.686-61.169c17.393-68.739,14.956-142.916-5.319-211.158
		c-35.596-119.8-119.254-218.411-216.282-294.251c-0.443-0.346-0.687-0.736-0.948-1.121c-14.468-7.533-29.589-13.729-45.434-18.129
		c-32.351-8.969-60.668-9.13-85.32-2.602c-0.292,0.682-0.585,1.335-0.877,2.013C1196.584,771.864,1169.266,823.864,1158.552,887.942
		z"/>
	<path style="fill:#D0D76A;" d="M990.567,972.147c-2.285-17.969-7.167-37.115-21.208-48.56
		c-18.578-15.138-47.489-10.826-66.538,3.722c-19.05,14.543-30.334,36.862-40.039,58.772
		c-51.43,116.097-76.137,249.417-38.724,370.757c37.413,121.345,147.659,224.833,274.616,227.245
		c24,0.453,50.221-3.606,66.563-21.194c31.4-33.798-9.218-62.289-29.272-86.153c-30.09-35.791-55.815-75.342-76.872-117.072
		c-42.144-83.532-65.539-176.657-66.514-270.289C992.17,1050.266,995.503,1010.948,990.567,972.147z"/>
	<path style="fill:#D0D76A;" d="M1668.403,1151.868c-11.844,19.099-15.011,42.105-19.654,64.098
		c-19.084,90.421-68.117,174.265-137.568,235.23c-26.904,23.62-66.836,55.64-49.272,96.555c14.948,34.812,47.362,34.5,75.956,19.06
		c67.878-36.648,125.014-95.737,163.211-162.192c22.587-39.284,39.43-81.885,50.042-125.934
		c7.941-32.989,12.716-67.332,7.503-100.862c-3.318-21.32-13.067-44.54-33.423-51.693
		C1703.989,1118.68,1680.247,1132.765,1668.403,1151.868z"/>
	<path style="fill:#8A4225;" d="M1081.968,1165.033c11.176,73.613,34.358,148.531,83.63,205.939
		c48.01,55.942,121.442,91.82,195.843,80.668c6.144-0.921,8.77,8.472,2.587,9.398c-56.904,8.528-112.704-8.271-158.633-40.813
		c61.402,43.914,139.989,58.225,217.181,26.007c35.084-14.639,64.57-36.619,88.744-63.401c-3.865,1.053-8.067-4.32-4.676-8.267
		c34.039-39.649,56.902-86.435,69.456-136.048c-41.317,35.683-94.105,58.278-148.686,61.169
		c-88.799,4.711-178.441-42.84-224.336-119.001c-14.68-24.36-25.072-51.123-32.965-78.475
		c-20.039-69.34-23.483-143.166-11.562-214.265c10.714-64.078,38.032-116.078,63.367-174.674c0.292-0.678,0.585-1.33,0.877-2.013
		c-10.347,2.737-20.031,6.683-29.117,11.616c-0.081,0.092-0.099,0.196-0.189,0.286
		C1078.665,838.612,1058.509,1010.519,1081.968,1165.033z"/>
	<path style="fill:#B66C47;" d="M1281.963,955.494c39.123,53.623,86.528,104.477,102.947,168.789
		c9.199,36.034,9.52,77.593,35.888,103.814c53.851,53.545,133.194-7.098,139.147-69.471c6.84-71.663-17.379-152.906-49.379-216.073
		c-19.654-38.792-44.906-74.792-75.06-106.149c-24.024-24.989-52.16-47.776-85.705-56.511c-33.544-8.741-73.34-0.415-94.114,27.337
		c-16.151,21.578-18.358,51.235-11.464,77.291C1251.118,910.583,1266.075,933.721,1281.963,955.494z"/>
	<path style="fill:#CC7F5D;" d="M1351.142,928.741c33.106,26.982,63.756,58.655,80.93,97.759
		c6.538,14.889,11.99,31.868,25.851,40.366c21.978,13.471,46.514-3.362,52.01-26.061c4.736-19.571-6.514-43.902-12.974-62.119
		c-17.442-49.174-46.553-94.241-84.565-130.022c-15.259-14.367-32.74-27.669-53.301-31.727c-20.565-4.063-44.672,3.586-54.124,22.29
		c-8.234,16.297-3.474,36.663,6.787,51.761C1322.016,906.091,1336.988,917.209,1351.142,928.741z"/>
	<path style="fill:#D0D76A;" d="M1097.442,226.428c31.557,24.088,67.8,42.607,94.763,71.752
		c45.873,49.577,57.093,120.402,83.272,183.072c6.782,4.8,11.732,11.432,13.75,19.426c0.922,3.654,1.134,7.347,0.783,10.993
		c1.855,3.373,3.76,6.718,5.775,10c5.715,9.315,12.36,18.46,21.656,24.21c41.915,25.905,43.951-26.938,27.586-50.494
		c-24.317-35.001-35.342-77.632-48.185-117.978c-14.417-45.286-29.774-91.011-56.351-130.411
		c-26.578-39.396-66.115-72.321-112.896-80.682c-10.753-1.924-22.114-2.48-32.331,1.374c-10.217,3.849-19.026,12.911-19.951,23.79
		C1074.09,205.843,1085.987,217.682,1097.442,226.428z"/>
	<path style="fill:#657E34;" d="M539.464,1045.632c-16.08,11.393-32.688,22.07-49.673,32.094c2.533,1.826,3.452,6.125-0.037,8.272
		c-39.459,24.273-81.608,43.372-126.139,56.239c-7.22,2.085-16.633,3.396-23.191,7.352c-9.92,1.559-11.961,8.093-6.124,19.6
		c-4.492,11.133-2.261,17.496,6.694,19.089c10.772,6.197,26.114,7.094,38.246,7.142c26.329,0.102,50.694-8.784,71.902-23.99
		c2.619-1.879,5.164-0.562,6.349,1.648c5.281-3.798,10.597-7.547,16.262-10.749c10.982-6.202,23.03-10.232,34.982-14.324
		c8.414-2.86,16.824-5.812,25.204-8.867C530.792,1107.761,532.804,1076.224,539.464,1045.632z"/>
	<path style="fill:#5A6E29;" d="M581.038,1114.368c38.558-19.547,73.466-45.032,102.86-76.813
		c32.965-35.64,68.643-83.747,49.525-134.485c-0.721-1.913-0.148-3.414,0.943-4.446c-6.879-7.072-16.728-10.322-30.102-6.229
		c-16.611,5.061-33.167,26.686-47.733,46.007c-7.309,9.695-14.125,18.819-20.179,24.96c-29.754,30.236-62.231,57.778-96.886,82.27
		c-6.66,30.592-8.672,62.129-5.525,93.505c15.393-5.595,30.664-11.553,45.625-18.122
		C578.105,1118.886,578.087,1115.867,581.038,1114.368z"/>
	<path style="fill:#5A6E29;" d="M644.927,1085.751c2.491-1.664,5.014-3.275,7.463-5.01c38.231-27.021,71.02-63.84,87.271-107.419
		c-7.839,18.849-19.955,36.566-32.908,52.623C688.575,1048.474,667.737,1068.376,644.927,1085.751z"/>
	<path style="fill:#D0D76A;" d="M1467.921,753.993c30.704,34.992,73.91,56.697,106.836,89.613
		c32.877,32.867,54.558,76.735,60.697,122.82c2.207,16.575,2.48,33.491,6.777,49.652c4.297,16.16,13.461,32.048,28.458,39.449
		c15.795,7.795,36.502,4,48.502-8.896c30.07-32.307,0.794-114.485-12.434-149.081c-19.528-51.065-52.034-98.119-98.933-127.479
		c-22.967-14.377-48.677-24.258-70.523-40.288c-25.233-18.514-44.229-44.433-69.116-63.41c-4.536-3.454-10.377-6.82-15.63-4.599
		c-3.459,1.466-5.559,4.989-7.04,8.443C1433.466,698.262,1447.79,731.051,1467.921,753.993z"/>
	<path style="fill:#62220F;" d="M1003.001,469.029c-13.695,2.412-21.954,20.521-18.441,40.443
		c3.508,19.927,17.462,34.12,31.158,31.708c13.7-2.417,21.958-20.521,18.445-40.448
		C1030.65,480.81,1016.701,466.613,1003.001,469.029z"/>
	<path style="fill:#657E34;" d="M948.774,481.819c4.936-0.137,8.828-6.227,12.151-9.233c8.721-7.898,18.982-14.086,30.071-18.032
		c8.209-2.928,16.994-4.716,24.258-9.525c1.871-1.237,3.659-2.708,4.76-4.662c3.138-5.569-0.78-13.057-6.577-15.752
		c-5.798-2.694-12.604-1.788-18.792-0.185c-17.349,4.507-33.31,14.212-45.286,27.547c-4.862,5.413-9.257,11.937-9.262,19.211
		C940.092,475.991,943.176,481.974,948.774,481.819z"/>
	<path style="fill:#62220F;" d="M1150.85,430.715c-13.033,4.848-17.886,24.151-10.831,43.113
		c7.055,18.962,23.337,30.402,36.375,25.549c13.038-4.848,17.886-24.151,10.831-43.113
		C1180.175,437.302,1163.887,425.862,1150.85,430.715z"/>
	<path style="fill:#657E34;" d="M1204.097,414.306c4.906-2.699,4.541-9.418,2.104-13.559c-3.684-6.276-10.777-9.676-17.705-11.883
		c-17.082-5.442-35.761-5.739-53.004-0.843c-6.149,1.744-12.478,4.409-16.117,9.666c-3.635,5.257-3.225,13.695,2.299,16.911
		c1.939,1.13,4.224,1.496,6.465,1.617c8.702,0.468,17.179-2.431,25.744-4.063c11.562-2.207,23.542-2.061,35.059,0.336
		C1193.334,413.405,1199.771,416.688,1204.097,414.306z"/>
	<path style="fill:#62220F;" d="M1068.019,532.99c25.52,3.747,50.139-1.691,71.288-16.604c5.087-3.586,0.224-12.039-4.916-8.415
		c-18.86,13.301-40.858,18.992-63.781,15.625C1064.477,522.695,1061.827,532.079,1068.019,532.99z"/>
	<path style="fill:#F29577;" d="M977.885,623.446c24.799-10.441,38.085-35.084,29.686-55.045
		c-8.405-19.961-35.323-27.679-60.122-17.238c-24.795,10.44-38.085,35.089-29.681,55.045
		C926.168,626.169,953.086,633.886,977.885,623.446z"/>
	<path style="fill:#FBD4BD;" d="M977.554,593.741c3.123-3.45,3.517-6.655,4.073-11.172c0.658-5.325,1.203-10.489,1.247-15.854
		c0.029-3.655-5.51-4.478-6.422-0.872c-1.237,4.916-2.007,9.725-2.68,14.743c-0.643,4.809-1.311,8.39,0.984,12.794
		C975.269,594.364,976.808,594.564,977.554,593.741z"/>
	<path style="fill:#FBD4BD;" d="M946.217,607.903c3.932-4.073,3.917-10.343,4.755-15.722c1.023-6.583,1.671-13.067,0.838-19.684
		c-0.395-3.167-4.56-4.029-5.686-0.77c-2.183,6.295-2.85,12.706-3.279,19.352c-0.356,5.423-1.612,11.781,1.388,16.57
		C944.657,608.323,945.637,608.508,946.217,607.903z"/>
	<path style="fill:#F29577;" d="M1289.227,500.678c-2.018-7.995-6.968-14.626-13.75-19.426
		c-11.032-7.807-26.929-10.748-43.083-6.668c-26.09,6.582-42.943,28.945-37.642,49.944c5.301,20.999,30.748,32.682,56.833,26.095
		c21.549-5.437,36.758-21.642,38.425-38.951C1290.361,508.025,1290.149,504.333,1289.227,500.678z"/>
	<path style="fill:#FBD4BD;" d="M1258.684,493.931c-1.939,4.628-3.44,9.242-4.843,14.061c-1.311,4.472-2.422,7.727-0.877,12.253
		c0.458,1.345,1.919,1.652,2.977,0.784c3.702-3.03,4.453-6.387,5.715-10.884c1.359-4.823,2.533-9.53,3.332-14.48
		C1265.671,491.46,1260.311,490.062,1258.684,493.931z"/>
	<path style="fill:#FBD4BD;" d="M1228.126,494.427c-3.299,6.256-5.062,12.823-6.47,19.757c-1.067,5.266-3.05,10.821-0.872,15.926
		c0.356,0.833,1.422,0.687,1.983,0.253c4.439-3.43,5.574-10.134,7.138-15.293c1.929-6.372,3.454-12.521,3.62-19.181
		C1233.593,493.068,1229.471,491.879,1228.126,494.427z"/>
	<path style="fill:#62220F;" d="M1174.387,1394.46c5.266,5.108,10.776,9.933,16.424,14.569c0.241,0.198,0.477,0.404,0.718,0.601
		c1.859,1.514,3.737,2.995,5.632,4.455c2.06,1.586,4.122,3.169,6.225,4.69c0.67,0.484,1.335,0.972,2.009,1.449
		c45.93,32.542,101.729,49.342,158.633,40.813c6.183-0.926,3.557-10.319-2.587-9.398c-74.401,11.152-147.834-24.726-195.843-80.668
		c-49.272-57.408-72.453-132.326-83.63-205.939c-23.459-154.514-3.303-326.421,111.522-441.875c0.09-0.091,0.107-0.194,0.189-0.286
		c3.887-4.45-2.74-10.965-7.078-6.603c-13.243,13.316-25.195,27.41-36.067,42.097c-15.295,20.661-28.32,42.56-39.261,65.415
		c-52.463,109.593-57.203,240.875-35.98,360.4C1088.915,1260.901,1117.339,1339.123,1174.387,1394.46z"/>
	<path style="fill:#62220F;" d="M1570.781,1027.357c20.275,68.241,22.713,142.419,5.319,211.158
		c-12.553,49.613-35.417,96.399-69.456,136.048c-3.391,3.947,0.811,9.32,4.676,8.267c0.771-0.21,1.532-0.585,2.213-1.378
		c80.068-93.266,101.013-224.565,70.719-341.968c-32.926-127.62-120.76-233.457-222.859-313.266
		c-4.448-3.477-10.496,1.867-7.843,5.768c0.261,0.385,0.505,0.774,0.948,1.121C1451.527,808.946,1535.185,907.557,1570.781,1027.357
		z"/>
	<path style="fill:#62220F;" d="M1023.786,113.838c65.973,2.899,129.749,26.271,181.568,67.406
		c53.276,42.294,85.905,100.311,110.187,162.835c39.903,102.757,68.151,223.498,170.148,283.663c0.48,0.283,0.944,0.375,1.409,0.487
		c4.782,1.157,8.436-5.993,3.512-8.901c-16.263-9.593-30.513-20.733-43.24-33.033c-80.5-77.802-97.838-203.69-147.245-301.49
		c-53.461-105.822-157.301-175.478-276.34-180.711c-4.646-0.202-5.821,5.081-3.586,7.951
		C1020.981,113.049,1022.164,113.768,1023.786,113.838z"/>
	<path style="fill:#62220F;" d="M682.899,866.393c19.381-47.551,36.667-96.351,41.954-147.737
		c5.842-56.789-2.032-113.68-9.408-169.934c-13.807-105.335-25.3-228.516,58.885-309.154c3.707-3.552-0.224-8.7-4.257-8.13
		c-0.902,0.128-1.805,0.445-2.632,1.236c-75.537,72.355-77.72,181.218-66.489,278.353c6.709,58.046,17.237,115.975,16.097,174.621
		c-1.213,62.567-20.146,120.755-43.542,178.158c-1.575,3.86,2.056,6.201,5.361,5.692
		C680.529,869.241,682.116,868.314,682.899,866.393z"/>
	<path style="fill:#62220F;" d="M621.021,1393.762c-8.967-34.798-14.36-70.573-15.932-106.772
		c-2.059-47.438,2.39-95.587,13.781-143.165c1.185-4.959-4.76-7.514-7.824-5.041c-0.702,0.567-1.301,1.312-1.574,2.45
		c-46.202,192.984,19.411,395.999,170.499,524.662c4.75,4.044,11.674-2.816,6.889-6.889c-5.439-4.632-10.733-9.392-15.949-14.215
		C696.707,1576.152,645.469,1488.631,621.021,1393.762z"/>
	<path style="fill:#62220F;" d="M1301.008,1724.209c-119.693,28.565-243.644,28.136-363.142-1.233
		c-2.049-0.505-3.652,0.273-4.712,1.521c-2.085,2.458-1.918,6.877,2.124,7.872c3.885,0.955,7.788,1.793,11.682,2.688
		c48.034,11.034,96.741,17.513,145.58,19.358c70.676,2.67,141.6-4.237,211.059-20.813c2.384-0.568,3.405-2.351,3.443-4.225
		C1307.102,1726.46,1304.725,1723.322,1301.008,1724.209z"/>
	<path style="fill:#62220F;" d="M1804.042,1183.99c0.019-1.831-0.837-3.061-2.005-3.824c-2.832-1.849-7.691-0.62-7.739,3.824
		c-1.591,146.159-62.315,281.414-161.591,379.494c-64.966,64.185-146.401,112.487-238.716,137.373
		c-3.158,0.85-3.926,3.802-3.114,6.213c0.743,2.207,2.804,3.963,5.705,3.181c6.653-1.793,13.23-3.747,19.771-5.776
		c49.34-15.308,95.381-37.293,137.318-64.722C1704.681,1540.986,1802.004,1371.191,1804.042,1183.99z"/>
	<path style="fill:#62220F;" d="M1790.946,1048.95c0.396,3.503,3.694,4.965,6.358,4.493c2.025-0.359,3.69-1.803,3.386-4.493
		c-15.917-141.31-90.47-270.406-204.94-354.796c-5.047-3.727-9.915,4.726-4.916,8.414c1.844,1.359,3.649,2.763,5.471,4.147
		C1704.605,788.923,1775.709,913.702,1790.946,1048.95z"/>
	<path style="fill:#62220F;" d="M706.753,1025.944c12.954-16.057,25.069-33.774,32.908-52.623
		c9.525-22.901,12.714-47.476,3.155-72.843c-1.476-3.923-6.185-3.996-8.451-1.854c-1.09,1.031-1.664,2.533-0.943,4.446
		c19.118,50.738-16.561,98.845-49.525,134.485c-29.393,31.781-64.302,57.266-102.86,76.813c-2.951,1.499-2.933,4.518-1.474,6.648
		c1.305,1.906,3.755,3.105,6.394,1.766c10.27-5.207,20.237-10.918,29.96-16.978c9.997-6.231,19.661-12.934,29.008-20.054
		C667.737,1068.376,688.575,1048.474,706.753,1025.944z"/>
	<path style="fill:#62220F;" d="M1075.688,1790.859c-6.821,18.505-11.354,36.77-14.289,55.259
		c-3.228,20.322-4.516,40.917-4.542,62.436c-0.029,25.349-2.261,48.755-21.807,67.381c-14.655,13.959-34.363,22.071-52.833,29.452
		c-2.689,1.074-3.518,3.697-3.097,5.958c0.477,2.573,2.586,4.674,5.689,3.435c31.508-12.59,66.353-28.746,77.427-63.683
		c6.529-20.604,3.81-42.767,4.283-63.995c0.721-32.287,7.425-63.435,18.568-93.652c1.107-3.004-0.799-5.116-3.216-5.713
		C1079.544,1787.165,1076.744,1787.994,1075.688,1790.859z"/>
	<path style="fill:#62220F;" d="M969.768,1963.02c13.206-52.668-18.011-101.439-24.403-151.797
		c-2.089-16.454-1.539-33.075,4.091-50.059c1.332-4.027-2.5-6.424-5.749-5.785c-1.566,0.308-3.009,1.263-3.649,3.193
		c-23.152,69.831,37.764,132.248,20.317,201.856c-0.352,1.399-0.08,2.584,0.495,3.552
		C962.795,1967.219,968.594,1967.71,969.768,1963.02z"/>
	<path style="fill:#62220F;" d="M1648.052,1809.286c11.571,15.187,23.289,11.405,38.616,18.723
		c17.281,8.244,6.173,33.871-6.719,42.368c-5.851,3.854-14.076,6.09-20.853,7.98c-15.074,4.2-30.226,4.268-45.568,2.441
		c-1.344-0.16-2.337,0.231-3.096,0.855c-2.754,2.261-1.735,8.316,3.096,8.889c27.717,3.299,61.111-0.779,83.381-19.42
		c12.672-10.602,21.31-29.934,8.516-44.258c-6.84-7.654-16.434-7.454-25.652-9.919c-22.402-6.003-28.852-20.789-37.768-39.854
		c-17.477-37.374-34.802-74.821-52.205-112.229c-2.641-5.681-11.045-0.736-8.414,4.921c0.853,1.833,1.705,3.666,2.558,5.499
		c11.196,24.063,22.387,48.13,33.583,72.196C1626.932,1767.692,1634.444,1791.434,1648.052,1809.286z"/>
	<path style="fill:#62220F;" d="M1572.769,1848.024c-29.477-36.014-62.604-68.24-99.138-96.903
		c-3.415-2.68-6.818-5.372-10.294-7.989c-3.256-2.452-6.432,0.268-6.908,3.494c-0.255,1.736,0.257,3.617,1.992,4.921
		c39.961,30.085,75.785,64.667,107.459,103.366c2.054,2.51,4.852,1.849,6.558-0.018
		C1574.032,1853.148,1574.674,1850.35,1572.769,1848.024z"/>
	<path style="fill:#62220F;" d="M797.915,208.513c12.977-13.186,26.821-25.154,41.455-35.88
		c31.612-23.167,66.934-40.509,105.321-51.599c1.579-0.455,2.537-1.449,3.026-2.622c1.374-3.293-1.155-8.061-5.613-6.772
		c-57.671,16.658-108.974,47.196-151.084,89.983c-1.986,2.019-1.615,4.49-0.268,6.227
		C792.39,209.962,795.496,210.97,797.915,208.513z"/>
	<path style="fill:#62220F;" d="M451.143,1171.43c-21.208,15.206-45.574,24.093-71.902,23.99
		c-12.132-0.048-27.474-0.945-38.246-7.142c-8.955-1.593-11.186-7.956-6.694-19.089c-5.837-11.508-3.796-18.041,6.124-19.6
		c6.558-3.956,15.971-5.266,23.191-7.352c44.531-12.867,86.68-31.966,126.139-56.239c3.489-2.146,2.57-6.446,0.037-8.272
		c-1.338-0.964-3.101-1.277-4.953-0.137c-36.297,22.319-74.787,40.346-115.586,52.813c-19.454,5.949-56.073,10.524-55.97,38.324
		c0.092,25.071,31.493,32.984,50.821,35.425c33.018,4.176,65.106-5.057,91.956-24.307c2.461-1.763,2.559-4.667,1.434-6.766
		C456.307,1170.868,453.762,1169.551,451.143,1171.43z"/>
	<path style="fill:#62220F;" d="M1481.383,527.47c4.618-11.104,9.716-21.935,15.2-32.526c4.035-7.795,8.302-15.446,12.793-22.948
		c7.16-11.962,14.876-23.55,23.15-34.727c21.542-29.1,46.754-55.473,75.255-78.633c0.881-0.716,1.268-1.531,1.459-2.355
		c0.862-3.732-4.393-7.746-8.348-4.534c-57.092,46.392-100.668,105.252-128.902,173.13c-1.191,2.862,0.52,4.915,2.836,5.577
		C1477.188,531.131,1480.182,530.357,1481.383,527.47z"/>
	<path style="fill:#62220F;" d="M1616.944,425.097c-31.014,50.994-44.262,111.132-55.719,170.417
		c-4.094,21.181-7.966,42.255-12.329,62.762c-0.811,3.813,2.531,6.259,5.481,6.08c1.785-0.108,3.425-1.174,3.917-3.488
		c16.365-76.925,25.525-162.563,67.065-230.85c0.93-1.529,0.853-2.988,0.276-4.216
		C1624.189,422.717,1619.275,421.267,1616.944,425.097z"/>
	<path style="fill:#62220F;" d="M920.736,1582.942c-145.812-84.886-217.729-255.468-176.974-419.347
		c0.831-3.334-1.62-5.55-4.248-5.934c-2.171-0.317-4.461,0.59-5.145,3.343c-17.023,68.453-14.874,138.104,3.753,202.507
		c12.245,42.334,31.665,82.363,57.399,118.327c31.208,43.614,71.717,81.234,120.295,109.514c3.055,1.778,5.873-0.13,6.853-2.68
		C923.432,1586.687,923.109,1584.323,920.736,1582.942z"/>
	<path style="fill:#62220F;" d="M815.445,922.563c31.518-94.538,64.019-192.872,58.265-293.904
		c-5.496-96.541-53.929-182.962-68.848-277.632c-0.38-2.421-2.056-3.454-3.893-3.49c-2.85-0.056-6.09,2.343-5.5,6.082
		c14.777,93.773,63.055,179.439,68.501,275.04c5.701,100.19-26.67,197.578-57.924,291.318c-1.399,4.196,2.834,6.63,6.163,5.677
		C813.607,925.253,814.86,924.317,815.445,922.563z"/>
	<path style="fill:#62220F;" d="M1350.201,1660.389c-91.464,9.316-182.986,3.703-272.604-16.921
		c-2.862-0.658-4.904,1.078-5.688,3.231c-0.889,2.439-0.151,5.419,3.097,6.167c90.421,20.804,182.874,26.67,275.195,17.266
		c3.907-0.398,5.352-4.435,4.319-7.196C1353.92,1661.334,1352.495,1660.155,1350.201,1660.389z"/>
	<path style="fill:#728936;" d="M771.264,839.786c13.574-16.024,16.453-48.375,21.496-67.888
		c8.809-34.061,15.688-68.706,18.621-103.805c4.731-56.595-1.11-114.933-24.117-166.855c-5.13-11.576-16.75-24.799-27.893-18.792
		c-7.703,4.156-8.565,14.724-8.014,23.459c1.944,31.055,9.233,61.535,12.399,92.487c4.404,43.152,0.687,87.123-10.909,128.926
		c-8.784,31.663-28.823,68.414-27.649,101.865C726.1,854.88,756.336,857.409,771.264,839.786z"/>
	<path style="fill:#728936;" d="M780.439,1557.437c-25.837-27.712-44.156-61.851-57.613-97.042
		c-18.733-48.989-28.838-100.78-43.313-151.191c-2.456-8.541-5.257-17.423-11.571-23.673c-6.315-6.251-17.262-8.75-24.098-3.074
		c-5.184,4.302-6.456,11.654-6.992,18.373c-4.604,57.71,19.065,113.5,42.241,166.553c22.027,50.421,46.241,103.546,91.825,134.358
		c11.717,7.922,37.184,15.474,40.404-5.885C813.535,1581.145,789.135,1566.762,780.439,1557.437z"/>
</g>
</svg>
